<svg width="17" height="22" viewBox="0 0 17 22" fill="none" xmlns="http://www.w3.org/2000/svg">
<path d="M14.7514 3.19629H13.0808V4.26009C13.0808 4.38804 13.0667 4.51307 13.0413 4.63387H14.9303C15.1395 4.63387 15.3092 4.80362 15.3092 5.01282V19.664C15.3092 19.8732 15.1395 20.0429 14.9303 20.0429H2.31789C2.10864 20.0429 1.93893 19.8732 1.93893 19.664V5.01282C1.93893 4.80358 2.10868 4.63387 2.31789 4.63387H4.20694C4.18145 4.51311 4.16744 4.38804 4.16744 4.26009V3.19629H2.49681C1.45027 3.19629 0.601929 4.04467 0.601929 5.09121V20.0198C0.601929 21.0663 1.45031 21.9147 2.49681 21.9147H14.7514C15.7979 21.9147 16.6463 21.0663 16.6463 20.0198V5.09121C16.6463 4.04467 15.7979 3.19629 14.7514 3.19629Z" fill="black"/>
<path d="M5.9729 5.39711H11.2753C11.9034 5.39711 12.4123 4.88818 12.4123 4.26015V4.12957V3.25217V3.12163C12.4123 2.49359 11.9034 1.98467 11.2753 1.98467H9.83841C9.78124 1.36091 9.26257 0.870605 8.6241 0.870605C7.98529 0.870605 7.46658 1.36091 7.40945 1.98467H5.9729C5.34486 1.98467 4.83594 2.49359 4.83594 3.12163V3.25217V4.12961V4.26019C4.83594 4.88823 5.34486 5.39711 5.9729 5.39711ZM8.6241 1.53913C8.93158 1.53913 9.18099 1.78853 9.18099 2.09597C9.18099 2.40378 8.93158 2.65319 8.6241 2.65319C8.31628 2.65319 8.06688 2.40378 8.06688 2.09597C8.06688 1.78849 8.31628 1.53913 8.6241 1.53913Z" fill="black"/>
</svg>
