<svg width="24" height="24" viewBox="0 0 24 24" fill="none" xmlns="http://www.w3.org/2000/svg">
<path d="M12 7.0769V12L15.0769 15.0769" stroke="#474747" stroke-width="2" stroke-linecap="round" stroke-linejoin="round"/>
<path d="M1.35938 12.5C1.61287 17.986 6.01395 22.3871 11.5 22.6406V23.4873C5.54654 23.2326 0.767421 18.4535 0.512695 12.5H1.35938ZM17.3105 22.2002C15.8604 22.9567 14.2299 23.4133 12.5 23.4873V22.6406C14.0766 22.5678 15.5624 22.1527 16.8867 21.4678L17.3105 22.2002ZM23.4873 12.5C23.4133 14.2299 22.9567 15.8604 22.2002 17.3105L21.4678 16.8867C22.1527 15.5624 22.5678 14.0766 22.6406 12.5H23.4873ZM20.4766 4.22949C22.2487 6.16165 23.3675 8.70102 23.4873 11.5H22.6406C22.5221 8.93458 21.4976 6.60624 19.8779 4.82812L20.4766 4.22949ZM5.2041 5.27637L5.2002 6.12305L4.15039 6.11816L4.81543 5.45312L4.85254 5.49121L5.06934 5.27539L5.2041 5.27637ZM12.5 0.516602C15.102 0.654369 17.6717 1.6723 19.7295 3.56348L19.1709 4.12109C17.3929 2.50193 15.0649 1.47691 12.5 1.3584V0.516602ZM2.97949 3.26367L2.1377 4.10547L2.13281 3.05566L2.97852 3.05078L2.97949 3.26367ZM11.5 1.35449C9.0966 1.44186 6.72458 2.33719 4.8291 4.04492L4.27246 3.4834C6.19889 1.73447 8.72202 0.630614 11.5 0.511719V1.35449Z" fill="#1C274C" stroke="#474747"/>
</svg>
