<svg width="24" height="26" viewBox="0 0 24 26" fill="none" xmlns="http://www.w3.org/2000/svg">
<path d="M7.1986 9.68937V6.37915C7.1986 5.06226 7.71502 3.79931 8.63426 2.86813C9.55351 1.93695 10.8003 1.41382 12.1003 1.41382C13.4003 1.41382 14.647 1.93695 15.5663 2.86813C16.4855 3.79931 17.0019 5.06226 17.0019 6.37915V9.68937C17.0022 10.5612 16.7758 11.4178 16.3456 12.1729C15.9154 12.928 15.2965 13.5551 14.5511 13.991V16.0169C14.5513 16.3476 14.6493 16.6707 14.8325 16.9444C15.0157 17.2182 15.2756 17.4301 15.5788 17.5528L18.9283 18.91C20.0479 19.3638 21.0075 20.147 21.6835 21.1586C22.3594 22.1702 22.7207 23.3638 22.7206 24.5854H1.47998C1.47998 22.0861 2.98316 19.8385 5.27224 18.9116L8.62172 17.5545C8.92516 17.4316 9.18529 17.2195 9.36849 16.9454C9.55169 16.6713 9.64955 16.3479 9.64943 16.0169V13.991C8.90395 13.5552 8.28494 12.9282 7.8547 12.173C7.42446 11.4179 7.19817 10.5613 7.1986 9.68937Z" stroke="#474747" stroke-linecap="round" stroke-linejoin="round"/>
</svg>
