<svg width="27" height="26" viewBox="0 0 27 26" fill="none" xmlns="http://www.w3.org/2000/svg">
<path d="M4.46085 13.0001H1.88623L13.472 1.41431L25.0578 13.0001H22.4832M4.46085 13.0001V22.0112C4.46085 22.6941 4.7321 23.3489 5.21493 23.8318C5.69777 24.3146 6.35263 24.5859 7.03546 24.5859H19.9085C20.5914 24.5859 21.2462 24.3146 21.7291 23.8318C22.2119 23.3489 22.4832 22.6941 22.4832 22.0112V13.0001" stroke="#474747" stroke-width="2" stroke-linecap="round" stroke-linejoin="round"/>
<path d="M9.61011 24.5861V16.8622C9.61011 16.1794 9.88136 15.5245 10.3642 15.0417C10.847 14.5589 11.5019 14.2876 12.1847 14.2876H14.7593C15.4422 14.2876 16.097 14.5589 16.5799 15.0417C17.0627 15.5245 17.334 16.1794 17.334 16.8622V24.5861" stroke="#474747" stroke-width="2" stroke-linecap="round" stroke-linejoin="round"/>
</svg>
