<svg width="18" height="14" viewBox="0 0 18 14" fill="none" xmlns="http://www.w3.org/2000/svg">
<path d="M13.1399 3.37131L13.2855 3.44358C13.3471 3.47416 13.4111 3.48859 13.4741 3.48859C13.6593 3.48859 13.8356 3.3635 13.9135 3.15458C14.0177 2.87457 13.9057 2.54995 13.6631 2.42958L13.5175 2.35728C13.275 2.23688 12.9939 2.36627 12.8896 2.64628C12.7853 2.92632 12.8974 3.25092 13.1399 3.37131Z" fill="black"/>
<path d="M17.3399 7.79619V4.61815C17.3399 4.31333 17.1259 4.06624 16.8618 4.06624H8.66993C8.40592 4.06624 8.19191 4.31333 8.19191 4.61815C8.19191 4.92296 8.40592 5.17005 8.66993 5.17005H14.5397L8.66993 8.08362L1.68833 4.61815L8.66993 1.15267L11.8037 2.70818C12.0463 2.82855 12.3274 2.69916 12.4317 2.41912C12.5359 2.13911 12.4238 1.81449 12.1813 1.69412L8.85872 0.0448696C8.73819 -0.0149565 8.60164 -0.0149565 8.48111 0.0448696L0.289225 4.11111C0.113744 4.19823 0 4.39761 0 4.61815C0 4.83868 0.113744 5.03809 0.289225 5.12518L8.48114 9.19137C8.54139 9.22128 8.60568 9.23623 8.66993 9.23623C8.73417 9.23623 8.79847 9.22128 8.85872 9.19137L13.3674 6.95338L13.3675 10.7724C10.7365 13.5828 6.60331 13.5828 3.97238 10.7724L3.9724 9.79821C3.9724 9.49339 3.75839 9.24628 3.49438 9.24628C3.2304 9.24628 3.01636 9.49339 3.01636 9.79815L3.01634 11.0088C3.01634 11.1571 3.06804 11.2992 3.15977 11.403C4.63976 13.0777 6.59662 14 8.6699 14C10.7432 14 12.7001 13.0777 14.1801 11.403C14.2718 11.2992 14.3235 11.1572 14.3235 11.0088L14.3234 6.47885L16.3838 5.45612V7.79616C15.9944 8.00511 15.7236 8.46081 15.7236 8.98838C15.7236 9.52979 16.0736 10.9542 16.8618 10.9542C17.65 10.9542 18 9.52979 18 8.98838C18 8.46084 17.7293 8.00516 17.3399 7.79619ZM16.8618 9.70121C16.769 9.49058 16.6796 9.16512 16.6796 8.9884C16.6796 8.87242 16.7614 8.77805 16.8618 8.77805C16.9623 8.77805 17.044 8.87242 17.044 8.9884C17.044 9.16512 16.9546 9.49058 16.8618 9.70121Z" fill="black"/>
<path d="M3.49438 8.67173C3.75838 8.67173 3.97239 8.42464 3.97239 8.11982V7.93618C3.97239 7.63136 3.75838 7.38428 3.49438 7.38428C3.23037 7.38428 3.01636 7.63136 3.01636 7.93618V8.11982C3.01636 8.42464 3.23037 8.67173 3.49438 8.67173Z" fill="black"/>
</svg>
