<svg width="18" height="16" viewBox="0 0 18 16" fill="none" xmlns="http://www.w3.org/2000/svg">
<path fill-rule="evenodd" clip-rule="evenodd" d="M16.9412 10.5845C16.2974 10.9882 15.1719 11.5558 13.7171 11.9059C13.5402 11.0513 12.8478 10.3445 11.8789 10.08C11.0192 9.84471 10.1435 9.67717 9.25835 9.56611C9.93282 9.05977 10.3987 8.35106 10.5332 7.53977C10.7386 7.53317 10.9535 7.52941 11.1992 7.52941C12.7556 7.53694 14.3036 7.74871 15.8019 8.15812C16.4827 8.34447 16.9412 8.88941 16.9412 9.51529V10.5845ZM12.7059 13.408C11.6354 14.0809 9.60988 15.0588 6.88236 15.0588C5.66895 15.0588 3.32788 14.8405 1.05882 13.408V12.3351C1.05882 11.7101 1.51836 11.1642 2.20023 10.9779C3.72282 10.5638 5.2973 10.3539 6.88236 10.3539H6.96176C8.52353 10.3605 10.0726 10.5713 11.5687 10.9798C12.2485 11.1652 12.7059 11.7101 12.7059 12.3351V13.408H12.7059ZM4.23529 7.05883V6.11764C4.23529 4.82071 5.42224 3.76471 6.88236 3.76471C8.34247 3.76471 9.52942 4.82071 9.52942 6.11764V7.05883C9.52942 8.35671 8.34247 9.41176 6.88236 9.41176C5.42224 9.41176 4.2353 8.35671 4.2353 7.05883H4.23529ZM11.1176 0.941182C11.8228 0.941182 12.4878 1.18683 12.9886 1.63201C13.4884 2.07718 13.7647 2.6673 13.7647 3.29412V4.2353C13.7647 5.53318 12.5778 6.58823 11.1176 6.58823C10.9334 6.58823 10.7576 6.56658 10.5882 6.53458V6.11764C10.5882 4.81412 9.7253 3.69506 8.48647 3.16141C8.56482 1.92753 9.70942 0.941182 11.1176 0.941182ZM16.1132 7.25835C15.2566 7.02493 14.3831 6.85647 13.4905 6.74447C14.2984 6.14024 14.8235 5.24612 14.8235 4.2353V3.29411C14.8235 2.416 14.4381 1.5887 13.7372 0.966582C13.0362 0.343525 12.1066 0 11.1176 0C9.23612 0 7.69448 1.25835 7.45942 2.87623C7.26988 2.84894 7.08036 2.82352 6.88236 2.82352C4.83882 2.82352 3.17648 4.3021 3.17648 6.11763V7.05882C3.17648 8.06963 3.70164 8.96376 4.51058 9.56893C3.62647 9.67905 2.74658 9.8447 1.89 10.0781C0.760238 10.3868 0 11.2941 0 12.3351V13.8824L0.211763 14.0235C2.79212 15.7431 5.49742 16 6.88236 16C10.1096 16 12.4475 14.7614 13.5529 14.0235L13.7647 13.8824V12.8781C15.6886 12.4565 17.0989 11.6612 17.7882 11.2L18 11.0588V9.51529C18 8.47341 17.2408 7.56612 16.1132 7.25835Z" fill="black"/>
</svg>
