<svg width="611" height="74" viewBox="0 0 611 74" fill="none" xmlns="http://www.w3.org/2000/svg">
<path d="M100 54L103 64H97L100 54Z" fill="url(#paint0_linear_1605_154)"/>
<path d="M101 31H99V58H101V31Z" fill="url(#paint1_linear_1605_154)"/>
<path d="M17 36.7742C17 34.6897 18.7411 33 20.8889 33H83.1111C85.2589 33 87 34.6897 87 36.7742V68.2258C87 70.3103 85.2589 72 83.1111 72H20.8889C18.7411 72 17 70.3103 17 68.2258V36.7742Z" fill="url(#paint2_linear_1605_154)" stroke="#D4EBEB" stroke-width="3"/>
<path d="M3.23245 27.1135L50.4303 2.63167C52.0705 1.78092 54.7265 1.79076 56.3624 2.65371L103.775 27.6618C105.459 28.5502 105.399 29.9893 103.642 30.8276L56.2632 53.4309C54.6509 54.2001 52.1718 54.1882 50.5696 53.4035L3.33753 30.274C1.59637 29.4213 1.54868 27.9869 3.23245 27.1135Z" fill="url(#paint3_linear_1605_154)" stroke="#D4EBEB" stroke-width="3"/>
<path d="M139.254 45.5054L129.55 30.7129L135.382 27.2452L147.445 45.5054H139.254ZM119 45.5054V14.779H126.167V45.5054H119ZM124.075 33.1271V27.2013H134.936V33.1271H124.075ZM136.049 30.9323L129.417 30.1422L139.521 14.779H147.133L136.049 30.9323ZM150.823 45.5054V14.779H157.99V34.7951L172.858 14.779H179.625V45.5054H172.502V25.5333L157.634 45.5054H150.823ZM187.383 45.5054V14.779H215.784V45.5054H208.617V18.949L210.264 20.5731H192.903L194.55 18.949V45.5054H187.383ZM220.703 42.7839L222.929 37.6921C224.265 38.4822 225.689 39.0968 227.203 39.5357C228.746 39.9454 230.244 40.1795 231.699 40.238C233.182 40.2673 234.518 40.121 235.705 39.7991C236.922 39.4772 237.886 38.9944 238.598 38.3506C239.34 37.7068 239.711 36.8874 239.711 35.8925C239.711 34.7219 239.222 33.8587 238.242 33.3027C237.263 32.7174 235.957 32.4248 234.325 32.4248H226.713V27.0696H233.791C235.245 27.0696 236.373 26.7769 237.174 26.1917C238.005 25.6064 238.42 24.8017 238.42 23.7774C238.42 22.8995 238.124 22.1972 237.53 21.6705C236.937 21.1145 236.12 20.7048 235.082 20.4414C234.073 20.1781 232.93 20.061 231.654 20.0903C230.378 20.1196 229.057 20.3244 227.692 20.7048C226.327 21.0852 225.021 21.612 223.775 22.285L221.594 16.7982C223.612 15.7739 225.734 15.0716 227.959 14.6912C230.215 14.2815 232.381 14.1791 234.459 14.3839C236.566 14.5595 238.465 15.0277 240.156 15.7886C241.848 16.5202 243.198 17.4858 244.207 18.6856C245.216 19.8854 245.721 21.3047 245.721 22.9435C245.721 24.4066 245.335 25.7088 244.563 26.8501C243.792 27.9914 242.709 28.8693 241.314 29.4838C239.949 30.0983 238.376 30.4056 236.595 30.4056L236.773 28.8254C238.851 28.8254 240.646 29.1765 242.16 29.8788C243.703 30.5519 244.89 31.503 245.721 32.732C246.581 33.9318 247.012 35.3218 247.012 36.902C247.012 38.3652 246.611 39.682 245.81 40.8526C245.038 41.9938 243.97 42.9595 242.605 43.7496C241.24 44.5397 239.682 45.125 237.931 45.5054C236.18 45.8859 234.31 46.0468 232.322 45.9883C230.363 45.9298 228.39 45.6518 226.401 45.1543C224.413 44.6275 222.514 43.8374 220.703 42.7839ZM249.204 45.5054L263.093 14.779H270.215L284.148 45.5054H276.581L265.185 18.3784H268.034L256.594 45.5054H249.204ZM256.148 38.9212L258.063 33.5221H274.088L276.047 38.9212H256.148ZM305.387 34.0489C303.844 34.6634 302.36 35.1316 300.936 35.4535C299.511 35.7461 298.146 35.8925 296.84 35.8925C292.656 35.8925 289.451 34.9121 287.225 32.9515C284.999 30.9616 283.887 28.1084 283.887 24.392V14.779H291.009V23.6019C291.009 25.7088 291.588 27.3037 292.745 28.3864C293.902 29.4399 295.549 29.9666 297.686 29.9666C299.051 29.9666 300.372 29.8203 301.648 29.5277C302.924 29.2058 304.111 28.7522 305.209 28.167L305.387 34.0489ZM304.363 45.5054V14.779H311.486V45.5054H304.363ZM325.865 27.1574H340.867V32.6881H325.865V27.1574ZM326.399 39.7991H343.36V45.5054H319.233V14.779H342.781V20.4853H326.399V39.7991ZM335.525 12.0575C334.664 12.0575 333.937 11.7795 333.344 11.2235C332.75 10.6675 332.454 9.93592 332.454 9.02876C332.454 8.1216 332.75 7.39002 333.344 6.83402C333.937 6.27802 334.664 6 335.525 6C336.386 6 337.113 6.27802 337.706 6.83402C338.329 7.39002 338.641 8.1216 338.641 9.02876C338.641 9.93592 338.329 10.6675 337.706 11.2235C337.113 11.7795 336.386 12.0575 335.525 12.0575ZM326.533 12.0575C325.672 12.0575 324.93 11.7795 324.307 11.2235C323.714 10.6675 323.417 9.93592 323.417 9.02876C323.417 8.1216 323.714 7.39002 324.307 6.83402C324.93 6.27802 325.672 6 326.533 6C327.394 6 328.121 6.27802 328.714 6.83402C329.308 7.39002 329.605 8.1216 329.605 9.02876C329.605 9.93592 329.308 10.6675 328.714 11.2235C328.121 11.7795 327.394 12.0575 326.533 12.0575ZM355.906 45.5054V18.949L357.553 20.5731H345.979V14.779H373V20.5731H361.426L363.029 18.949V45.5054H355.906Z" fill="url(#paint4_linear_1605_154)"/>
<path d="M127.4 65.2C126.333 65.2 125.34 65.0267 124.42 64.68C123.513 64.32 122.72 63.82 122.04 63.18C121.373 62.5267 120.853 61.76 120.48 60.88C120.107 60 119.92 59.04 119.92 58C119.92 56.96 120.107 56 120.48 55.12C120.853 54.24 121.38 53.48 122.06 52.84C122.74 52.1867 123.533 51.6867 124.44 51.34C125.347 50.98 126.34 50.8 127.42 50.8C128.567 50.8 129.613 51 130.56 51.4C131.507 51.7867 132.307 52.3667 132.96 53.14L131.28 54.72C130.773 54.1733 130.207 53.7667 129.58 53.5C128.953 53.22 128.273 53.08 127.54 53.08C126.807 53.08 126.133 53.2 125.52 53.44C124.92 53.68 124.393 54.02 123.94 54.46C123.5 54.9 123.153 55.42 122.9 56.02C122.66 56.62 122.54 57.28 122.54 58C122.54 58.72 122.66 59.38 122.9 59.98C123.153 60.58 123.5 61.1 123.94 61.54C124.393 61.98 124.92 62.32 125.52 62.56C126.133 62.8 126.807 62.92 127.54 62.92C128.273 62.92 128.953 62.7867 129.58 62.52C130.207 62.24 130.773 61.82 131.28 61.26L132.96 62.86C132.307 63.62 131.507 64.2 130.56 64.6C129.613 65 128.56 65.2 127.4 65.2ZM139.444 65.14C138.351 65.14 137.377 64.9067 136.524 64.44C135.671 63.96 134.997 63.3067 134.504 62.48C134.011 61.6533 133.764 60.7133 133.764 59.66C133.764 58.5933 134.011 57.6533 134.504 56.84C134.997 56.0133 135.671 55.3667 136.524 54.9C137.377 54.4333 138.351 54.2 139.444 54.2C140.551 54.2 141.531 54.4333 142.384 54.9C143.251 55.3667 143.924 56.0067 144.404 56.82C144.897 57.6333 145.144 58.58 145.144 59.66C145.144 60.7133 144.897 61.6533 144.404 62.48C143.924 63.3067 143.251 63.96 142.384 64.44C141.531 64.9067 140.551 65.14 139.444 65.14ZM139.444 63C140.057 63 140.604 62.8667 141.084 62.6C141.564 62.3333 141.937 61.9467 142.204 61.44C142.484 60.9333 142.624 60.34 142.624 59.66C142.624 58.9667 142.484 58.3733 142.204 57.88C141.937 57.3733 141.564 56.9867 141.084 56.72C140.604 56.4533 140.064 56.32 139.464 56.32C138.851 56.32 138.304 56.4533 137.824 56.72C137.357 56.9867 136.984 57.3733 136.704 57.88C136.424 58.3733 136.284 58.9667 136.284 59.66C136.284 60.34 136.424 60.9333 136.704 61.44C136.984 61.9467 137.357 62.3333 137.824 62.6C138.304 62.8667 138.844 63 139.444 63ZM147.614 65V54.32H152.834C154.127 54.32 155.14 54.56 155.874 55.04C156.62 55.52 156.994 56.2 156.994 57.08C156.994 57.9467 156.647 58.6267 155.954 59.12C155.26 59.6 154.34 59.84 153.194 59.84L153.494 59.22C154.787 59.22 155.747 59.46 156.374 59.94C157.014 60.4067 157.334 61.0933 157.334 62C157.334 62.9467 156.98 63.6867 156.274 64.22C155.567 64.74 154.494 65 153.054 65H147.614ZM149.994 63.18H152.854C153.534 63.18 154.047 63.0733 154.394 62.86C154.74 62.6333 154.914 62.2933 154.914 61.84C154.914 61.36 154.754 61.0067 154.434 60.78C154.114 60.5533 153.614 60.44 152.934 60.44H149.994V63.18ZM149.994 58.78H152.614C153.254 58.78 153.734 58.6667 154.054 58.44C154.387 58.2 154.554 57.8667 154.554 57.44C154.554 57 154.387 56.6733 154.054 56.46C153.734 56.2467 153.254 56.14 152.614 56.14H149.994V58.78ZM165.916 65.14C165.05 65.14 164.256 64.94 163.536 64.54C162.83 64.14 162.263 63.54 161.836 62.74C161.423 61.9267 161.216 60.9 161.216 59.66C161.216 58.4067 161.416 57.38 161.816 56.58C162.23 55.78 162.79 55.1867 163.496 54.8C164.203 54.4 165.01 54.2 165.916 54.2C166.97 54.2 167.896 54.4267 168.696 54.88C169.51 55.3333 170.15 55.9667 170.616 56.78C171.096 57.5933 171.336 58.5533 171.336 59.66C171.336 60.7667 171.096 61.7333 170.616 62.56C170.15 63.3733 169.51 64.0067 168.696 64.46C167.896 64.9133 166.97 65.14 165.916 65.14ZM159.996 68.88V54.32H162.376V56.84L162.296 59.68L162.496 62.52V68.88H159.996ZM165.636 63C166.236 63 166.77 62.8667 167.236 62.6C167.716 62.3333 168.096 61.9467 168.376 61.44C168.656 60.9333 168.796 60.34 168.796 59.66C168.796 58.9667 168.656 58.3733 168.376 57.88C168.096 57.3733 167.716 56.9867 167.236 56.72C166.77 56.4533 166.236 56.32 165.636 56.32C165.036 56.32 164.496 56.4533 164.016 56.72C163.536 56.9867 163.156 57.3733 162.876 57.88C162.596 58.3733 162.456 58.9667 162.456 59.66C162.456 60.34 162.596 60.9333 162.876 61.44C163.156 61.9467 163.536 62.3333 164.016 62.6C164.496 62.8667 165.036 63 165.636 63ZM178.805 65.14C177.618 65.14 176.578 64.9067 175.685 64.44C174.805 63.96 174.118 63.3067 173.625 62.48C173.145 61.6533 172.905 60.7133 172.905 59.66C172.905 58.5933 173.138 57.6533 173.605 56.84C174.085 56.0133 174.738 55.3667 175.565 54.9C176.405 54.4333 177.358 54.2 178.425 54.2C179.465 54.2 180.391 54.4267 181.205 54.88C182.018 55.3333 182.658 55.9733 183.125 56.8C183.591 57.6267 183.825 58.6 183.825 59.72C183.825 59.8267 183.818 59.9467 183.805 60.08C183.805 60.2133 183.798 60.34 183.785 60.46H174.885V58.8H182.465L181.485 59.32C181.498 58.7067 181.371 58.1667 181.105 57.7C180.838 57.2333 180.471 56.8667 180.005 56.6C179.551 56.3333 179.025 56.2 178.425 56.2C177.811 56.2 177.271 56.3333 176.805 56.6C176.351 56.8667 175.991 57.24 175.725 57.72C175.471 58.1867 175.345 58.74 175.345 59.38V59.78C175.345 60.42 175.491 60.9867 175.785 61.48C176.078 61.9733 176.491 62.3533 177.025 62.62C177.558 62.8867 178.171 63.02 178.865 63.02C179.465 63.02 180.005 62.9267 180.485 62.74C180.965 62.5533 181.391 62.26 181.765 61.86L183.105 63.4C182.625 63.96 182.018 64.3933 181.285 64.7C180.565 64.9933 179.738 65.14 178.805 65.14ZM186.559 65V54.32H189.179L193.479 61.9H192.439L196.959 54.32H199.299L199.319 65H197.059V57L197.459 57.26L193.459 63.88H192.379L188.359 57.08L188.839 56.96V65H186.559ZM207.652 65.14C206.466 65.14 205.426 64.9067 204.532 64.44C203.652 63.96 202.966 63.3067 202.472 62.48C201.992 61.6533 201.752 60.7133 201.752 59.66C201.752 58.5933 201.986 57.6533 202.452 56.84C202.932 56.0133 203.586 55.3667 204.412 54.9C205.252 54.4333 206.206 54.2 207.272 54.2C208.312 54.2 209.239 54.4267 210.052 54.88C210.866 55.3333 211.506 55.9733 211.972 56.8C212.439 57.6267 212.672 58.6 212.672 59.72C212.672 59.8267 212.666 59.9467 212.652 60.08C212.652 60.2133 212.646 60.34 212.632 60.46H203.732V58.8H211.312L210.332 59.32C210.346 58.7067 210.219 58.1667 209.952 57.7C209.686 57.2333 209.319 56.8667 208.852 56.6C208.399 56.3333 207.872 56.2 207.272 56.2C206.659 56.2 206.119 56.3333 205.652 56.6C205.199 56.8667 204.839 57.24 204.572 57.72C204.319 58.1867 204.192 58.74 204.192 59.38V59.78C204.192 60.42 204.339 60.9867 204.632 61.48C204.926 61.9733 205.339 62.3533 205.872 62.62C206.406 62.8867 207.019 63.02 207.712 63.02C208.312 63.02 208.852 62.9267 209.332 62.74C209.812 62.5533 210.239 62.26 210.612 61.86L211.952 63.4C211.472 63.96 210.866 64.3933 210.132 64.7C209.412 64.9933 208.586 65.14 207.652 65.14ZM215.407 65V54.32H217.907V58.66H223.287V54.32H225.787V65H223.287V60.78H217.907V65H215.407ZM229.137 65V54.32H231.637V58.66H237.017V54.32H239.517V65H237.017V60.78H231.637V65H229.137ZM249.348 65V62.84L249.208 62.38V58.6C249.208 57.8667 248.988 57.3 248.548 56.9C248.108 56.4867 247.441 56.28 246.548 56.28C245.948 56.28 245.354 56.3733 244.768 56.56C244.194 56.7467 243.708 57.0067 243.308 57.34L242.328 55.52C242.901 55.08 243.581 54.7533 244.368 54.54C245.168 54.3133 245.994 54.2 246.848 54.2C248.394 54.2 249.588 54.5733 250.428 55.32C251.281 56.0533 251.708 57.1933 251.708 58.74V65H249.348ZM245.988 65.14C245.188 65.14 244.488 65.0067 243.888 64.74C243.288 64.46 242.821 64.08 242.488 63.6C242.168 63.1067 242.008 62.5533 242.008 61.94C242.008 61.34 242.148 60.8 242.428 60.32C242.721 59.84 243.194 59.46 243.848 59.18C244.501 58.9 245.368 58.76 246.448 58.76H249.548V60.42H246.628C245.774 60.42 245.201 60.56 244.908 60.84C244.614 61.1067 244.468 61.44 244.468 61.84C244.468 62.2933 244.648 62.6533 245.008 62.92C245.368 63.1867 245.868 63.32 246.508 63.32C247.121 63.32 247.668 63.18 248.148 62.9C248.641 62.62 248.994 62.2067 249.208 61.66L249.628 63.16C249.388 63.7867 248.954 64.2733 248.328 64.62C247.714 64.9667 246.934 65.14 245.988 65.14ZM261.581 65V61.36L261.941 61.78H258.741C257.274 61.78 256.121 61.4733 255.281 60.86C254.454 60.2333 254.041 59.3333 254.041 58.16C254.041 56.9067 254.481 55.9533 255.361 55.3C256.254 54.6467 257.441 54.32 258.921 54.32H263.821V65H261.581ZM253.901 65L256.781 60.92H259.341L256.581 65H253.901ZM261.581 60.56V55.76L261.941 56.42H259.001C258.228 56.42 257.628 56.5667 257.201 56.86C256.788 57.14 256.581 57.6 256.581 58.24C256.581 59.44 257.361 60.04 258.921 60.04H261.941L261.581 60.56ZM277.571 65.14C276.451 65.14 275.451 64.9067 274.571 64.44C273.705 63.96 273.025 63.3067 272.531 62.48C272.038 61.6533 271.791 60.7133 271.791 59.66C271.791 58.5933 272.038 57.6533 272.531 56.84C273.025 56.0133 273.705 55.3667 274.571 54.9C275.451 54.4333 276.451 54.2 277.571 54.2C278.611 54.2 279.525 54.4133 280.311 54.84C281.111 55.2533 281.718 55.8667 282.131 56.68L280.211 57.8C279.891 57.2933 279.498 56.92 279.031 56.68C278.578 56.44 278.085 56.32 277.551 56.32C276.938 56.32 276.385 56.4533 275.891 56.72C275.398 56.9867 275.011 57.3733 274.731 57.88C274.451 58.3733 274.311 58.9667 274.311 59.66C274.311 60.3533 274.451 60.9533 274.731 61.46C275.011 61.9533 275.398 62.3333 275.891 62.6C276.385 62.8667 276.938 63 277.551 63C278.085 63 278.578 62.88 279.031 62.64C279.498 62.4 279.891 62.0267 280.211 61.52L282.131 62.64C281.718 63.44 281.111 64.06 280.311 64.5C279.525 64.9267 278.611 65.14 277.571 65.14ZM284.332 65V54.32H286.832V61.36L292.732 54.32H295.012V65H292.512V57.96L286.632 65H284.332ZM303.235 65.14C302.115 65.14 301.115 64.9067 300.235 64.44C299.369 63.96 298.689 63.3067 298.195 62.48C297.702 61.6533 297.455 60.7133 297.455 59.66C297.455 58.5933 297.702 57.6533 298.195 56.84C298.689 56.0133 299.369 55.3667 300.235 54.9C301.115 54.4333 302.115 54.2 303.235 54.2C304.275 54.2 305.189 54.4133 305.975 54.84C306.775 55.2533 307.382 55.8667 307.795 56.68L305.875 57.8C305.555 57.2933 305.162 56.92 304.695 56.68C304.242 56.44 303.749 56.32 303.215 56.32C302.602 56.32 302.049 56.4533 301.555 56.72C301.062 56.9867 300.675 57.3733 300.395 57.88C300.115 58.3733 299.975 58.9667 299.975 59.66C299.975 60.3533 300.115 60.9533 300.395 61.46C300.675 61.9533 301.062 62.3333 301.555 62.6C302.049 62.8667 302.602 63 303.215 63C303.749 63 304.242 62.88 304.695 62.64C305.162 62.4 305.555 62.0267 305.875 61.52L307.795 62.64C307.382 63.44 306.775 64.06 305.975 64.5C305.189 64.9267 304.275 65.14 303.235 65.14ZM312.138 65V55.84L312.718 56.44H308.378V54.32H318.378V56.44H314.058L314.638 55.84V65H312.138ZM324.703 65.14C323.516 65.14 322.476 64.9067 321.583 64.44C320.703 63.96 320.016 63.3067 319.523 62.48C319.043 61.6533 318.803 60.7133 318.803 59.66C318.803 58.5933 319.036 57.6533 319.503 56.84C319.983 56.0133 320.636 55.3667 321.463 54.9C322.303 54.4333 323.256 54.2 324.323 54.2C325.363 54.2 326.29 54.4267 327.103 54.88C327.916 55.3333 328.556 55.9733 329.023 56.8C329.49 57.6267 329.723 58.6 329.723 59.72C329.723 59.8267 329.716 59.9467 329.703 60.08C329.703 60.2133 329.696 60.34 329.683 60.46H320.783V58.8H328.363L327.383 59.32C327.396 58.7067 327.27 58.1667 327.003 57.7C326.736 57.2333 326.37 56.8667 325.903 56.6C325.45 56.3333 324.923 56.2 324.323 56.2C323.71 56.2 323.17 56.3333 322.703 56.6C322.25 56.8667 321.89 57.24 321.623 57.72C321.37 58.1867 321.243 58.74 321.243 59.38V59.78C321.243 60.42 321.39 60.9867 321.683 61.48C321.976 61.9733 322.39 62.3533 322.923 62.62C323.456 62.8867 324.07 63.02 324.763 63.02C325.363 63.02 325.903 62.9267 326.383 62.74C326.863 62.5533 327.29 62.26 327.663 61.86L329.003 63.4C328.523 63.96 327.916 64.3933 327.183 64.7C326.463 64.9933 325.636 65.14 324.703 65.14ZM332.457 65V54.32H335.077L339.377 61.9H338.337L342.857 54.32H345.197L345.217 65H342.957V57L343.357 57.26L339.357 63.88H338.277L334.257 57.08L334.737 56.96V65H332.457ZM355.051 65V62.84L354.911 62.38V58.6C354.911 57.8667 354.691 57.3 354.251 56.9C353.811 56.4867 353.144 56.28 352.251 56.28C351.651 56.28 351.057 56.3733 350.471 56.56C349.897 56.7467 349.411 57.0067 349.011 57.34L348.031 55.52C348.604 55.08 349.284 54.7533 350.071 54.54C350.871 54.3133 351.697 54.2 352.551 54.2C354.097 54.2 355.291 54.5733 356.131 55.32C356.984 56.0533 357.411 57.1933 357.411 58.74V65H355.051ZM351.691 65.14C350.891 65.14 350.191 65.0067 349.591 64.74C348.991 64.46 348.524 64.08 348.191 63.6C347.871 63.1067 347.711 62.5533 347.711 61.94C347.711 61.34 347.851 60.8 348.131 60.32C348.424 59.84 348.897 59.46 349.551 59.18C350.204 58.9 351.071 58.76 352.151 58.76H355.251V60.42H352.331C351.477 60.42 350.904 60.56 350.611 60.84C350.317 61.1067 350.171 61.44 350.171 61.84C350.171 62.2933 350.351 62.6533 350.711 62.92C351.071 63.1867 351.571 63.32 352.211 63.32C352.824 63.32 353.371 63.18 353.851 62.9C354.344 62.62 354.697 62.2067 354.911 61.66L355.331 63.16C355.091 63.7867 354.657 64.2733 354.031 64.62C353.417 64.9667 352.637 65.14 351.691 65.14ZM366.992 69.02C366.472 69.02 365.952 68.9333 365.432 68.76C364.912 68.5867 364.478 68.3467 364.132 68.04L365.132 66.2C365.385 66.4267 365.672 66.6067 365.992 66.74C366.312 66.8733 366.638 66.94 366.972 66.94C367.425 66.94 367.792 66.8267 368.072 66.6C368.352 66.3733 368.612 65.9933 368.852 65.46L369.472 64.06L369.672 63.76L373.712 54.32H376.112L371.112 65.86C370.778 66.66 370.405 67.2933 369.992 67.76C369.592 68.2267 369.138 68.5533 368.632 68.74C368.138 68.9267 367.592 69.02 366.992 69.02ZM369.192 65.38L364.372 54.32H366.972L370.892 63.54L369.192 65.38ZM377.848 65V54.32H388.088V65H385.608V55.86L386.188 56.44H379.768L380.348 55.86V65H377.848ZM397.381 65.14C396.515 65.14 395.721 64.94 395.001 64.54C394.295 64.14 393.728 63.54 393.301 62.74C392.888 61.9267 392.681 60.9 392.681 59.66C392.681 58.4067 392.881 57.38 393.281 56.58C393.695 55.78 394.255 55.1867 394.961 54.8C395.668 54.4 396.475 54.2 397.381 54.2C398.435 54.2 399.361 54.4267 400.161 54.88C400.975 55.3333 401.615 55.9667 402.081 56.78C402.561 57.5933 402.801 58.5533 402.801 59.66C402.801 60.7667 402.561 61.7333 402.081 62.56C401.615 63.3733 400.975 64.0067 400.161 64.46C399.361 64.9133 398.435 65.14 397.381 65.14ZM391.461 68.88V54.32H393.841V56.84L393.761 59.68L393.961 62.52V68.88H391.461ZM397.101 63C397.701 63 398.235 62.8667 398.701 62.6C399.181 62.3333 399.561 61.9467 399.841 61.44C400.121 60.9333 400.261 60.34 400.261 59.66C400.261 58.9667 400.121 58.3733 399.841 57.88C399.561 57.3733 399.181 56.9867 398.701 56.72C398.235 56.4533 397.701 56.32 397.101 56.32C396.501 56.32 395.961 56.4533 395.481 56.72C395.001 56.9867 394.621 57.3733 394.341 57.88C394.061 58.3733 393.921 58.9667 393.921 59.66C393.921 60.34 394.061 60.9333 394.341 61.44C394.621 61.9467 395.001 62.3333 395.481 62.6C395.961 62.8667 396.501 63 397.101 63ZM411.633 65V62.84L411.493 62.38V58.6C411.493 57.8667 411.273 57.3 410.833 56.9C410.393 56.4867 409.726 56.28 408.833 56.28C408.233 56.28 407.639 56.3733 407.053 56.56C406.479 56.7467 405.993 57.0067 405.593 57.34L404.613 55.52C405.186 55.08 405.866 54.7533 406.653 54.54C407.453 54.3133 408.279 54.2 409.133 54.2C410.679 54.2 411.873 54.5733 412.713 55.32C413.566 56.0533 413.993 57.1933 413.993 58.74V65H411.633ZM408.273 65.14C407.473 65.14 406.773 65.0067 406.173 64.74C405.573 64.46 405.106 64.08 404.773 63.6C404.453 63.1067 404.293 62.5533 404.293 61.94C404.293 61.34 404.433 60.8 404.713 60.32C405.006 59.84 405.479 59.46 406.133 59.18C406.786 58.9 407.653 58.76 408.733 58.76H411.833V60.42H408.913C408.059 60.42 407.486 60.56 407.193 60.84C406.899 61.1067 406.753 61.44 406.753 61.84C406.753 62.2933 406.933 62.6533 407.293 62.92C407.653 63.1867 408.153 63.32 408.793 63.32C409.406 63.32 409.953 63.18 410.433 62.9C410.926 62.62 411.279 62.2067 411.493 61.66L411.913 63.16C411.673 63.7867 411.239 64.2733 410.613 64.62C409.999 64.9667 409.219 65.14 408.273 65.14ZM417.086 65V54.32H422.306C423.6 54.32 424.613 54.56 425.346 55.04C426.093 55.52 426.466 56.2 426.466 57.08C426.466 57.9467 426.12 58.6267 425.426 59.12C424.733 59.6 423.813 59.84 422.666 59.84L422.966 59.22C424.26 59.22 425.22 59.46 425.846 59.94C426.486 60.4067 426.806 61.0933 426.806 62C426.806 62.9467 426.453 63.6867 425.746 64.22C425.04 64.74 423.966 65 422.526 65H417.086ZM419.466 63.18H422.326C423.006 63.18 423.52 63.0733 423.866 62.86C424.213 62.6333 424.386 62.2933 424.386 61.84C424.386 61.36 424.226 61.0067 423.906 60.78C423.586 60.5533 423.086 60.44 422.406 60.44H419.466V63.18ZM419.466 58.78H422.086C422.726 58.78 423.206 58.6667 423.526 58.44C423.86 58.2 424.026 57.8667 424.026 57.44C424.026 57 423.86 56.6733 423.526 56.46C423.206 56.2467 422.726 56.14 422.086 56.14H419.466V58.78ZM427.909 64.98L428.029 62.88C428.122 62.8933 428.209 62.9067 428.289 62.92C428.369 62.9333 428.442 62.94 428.509 62.94C428.922 62.94 429.242 62.8133 429.469 62.56C429.696 62.3067 429.862 61.9667 429.969 61.54C430.089 61.1 430.169 60.6133 430.209 60.08C430.262 59.5333 430.302 58.9867 430.329 58.44L430.509 54.32H439.149V65H436.649V55.76L437.229 56.44H432.149L432.689 55.74L432.549 58.56C432.509 59.5067 432.429 60.3867 432.309 61.2C432.202 62 432.029 62.7 431.789 63.3C431.562 63.9 431.242 64.3667 430.829 64.7C430.429 65.0333 429.916 65.2 429.289 65.2C429.089 65.2 428.869 65.18 428.629 65.14C428.402 65.1 428.162 65.0467 427.909 64.98ZM447.496 65.14C446.309 65.14 445.269 64.9067 444.376 64.44C443.496 63.96 442.809 63.3067 442.316 62.48C441.836 61.6533 441.596 60.7133 441.596 59.66C441.596 58.5933 441.829 57.6533 442.296 56.84C442.776 56.0133 443.429 55.3667 444.256 54.9C445.096 54.4333 446.049 54.2 447.116 54.2C448.156 54.2 449.083 54.4267 449.896 54.88C450.709 55.3333 451.349 55.9733 451.816 56.8C452.283 57.6267 452.516 58.6 452.516 59.72C452.516 59.8267 452.509 59.9467 452.496 60.08C452.496 60.2133 452.489 60.34 452.476 60.46H443.576V58.8H451.156L450.176 59.32C450.189 58.7067 450.063 58.1667 449.796 57.7C449.529 57.2333 449.163 56.8667 448.696 56.6C448.243 56.3333 447.716 56.2 447.116 56.2C446.503 56.2 445.963 56.3333 445.496 56.6C445.043 56.8667 444.683 57.24 444.416 57.72C444.163 58.1867 444.036 58.74 444.036 59.38V59.78C444.036 60.42 444.183 60.9867 444.476 61.48C444.769 61.9733 445.183 62.3533 445.716 62.62C446.249 62.8867 446.863 63.02 447.556 63.02C448.156 63.02 448.696 62.9267 449.176 62.74C449.656 62.5533 450.083 62.26 450.456 61.86L451.796 63.4C451.316 63.96 450.709 64.3933 449.976 64.7C449.256 64.9933 448.429 65.14 447.496 65.14ZM455.25 65V54.32H457.75V58.66H463.13V54.32H465.63V65H463.13V60.78H457.75V65H455.25ZM468.981 65V54.32H471.481V61.36L477.381 54.32H479.661V65H477.161V57.96L471.281 65H468.981ZM489.804 65V61.36L490.164 61.78H486.964C485.497 61.78 484.344 61.4733 483.504 60.86C482.677 60.2333 482.264 59.3333 482.264 58.16C482.264 56.9067 482.704 55.9533 483.584 55.3C484.477 54.6467 485.664 54.32 487.144 54.32H492.044V65H489.804ZM482.124 65L485.004 60.92H487.564L484.804 65H482.124ZM489.804 60.56V55.76L490.164 56.42H487.224C486.45 56.42 485.85 56.5667 485.424 56.86C485.01 57.14 484.804 57.6 484.804 58.24C484.804 59.44 485.584 60.04 487.144 60.04H490.164L489.804 60.56ZM506.034 65.2C505.154 65.2 504.367 65.0667 503.674 64.8C502.981 64.5333 502.381 64.1267 501.874 63.58C501.381 63.02 501.001 62.3133 500.734 61.46C500.467 60.6067 500.334 59.5933 500.334 58.42C500.334 57.5667 500.407 56.7867 500.554 56.08C500.701 55.3733 500.921 54.74 501.214 54.18C501.507 53.6067 501.874 53.1 502.314 52.66C502.767 52.22 503.294 51.8533 503.894 51.56C504.494 51.2667 505.174 51.04 505.934 50.88L510.894 49.82L511.254 52.06L506.754 52.98C506.501 53.0333 506.194 53.1133 505.834 53.22C505.487 53.3133 505.127 53.46 504.754 53.66C504.394 53.8467 504.054 54.12 503.734 54.48C503.427 54.8267 503.174 55.28 502.974 55.84C502.787 56.3867 502.694 57.0733 502.694 57.9C502.694 58.1533 502.701 58.3467 502.714 58.48C502.741 58.6 502.761 58.7333 502.774 58.88C502.801 59.0133 502.814 59.2133 502.814 59.48L501.874 58.5C502.141 57.82 502.507 57.24 502.974 56.76C503.454 56.2667 504.007 55.8933 504.634 55.64C505.274 55.3733 505.967 55.24 506.714 55.24C507.714 55.24 508.601 55.4467 509.374 55.86C510.147 56.2733 510.754 56.8533 511.194 57.6C511.634 58.3467 511.854 59.1933 511.854 60.14C511.854 61.1267 511.614 62 511.134 62.76C510.654 63.52 509.974 64.12 509.094 64.56C508.227 64.9867 507.207 65.2 506.034 65.2ZM506.234 63.18C506.834 63.18 507.361 63.0533 507.814 62.8C508.281 62.5333 508.641 62.1733 508.894 61.72C509.161 61.2667 509.294 60.76 509.294 60.2C509.294 59.64 509.161 59.1533 508.894 58.74C508.641 58.3133 508.281 57.9733 507.814 57.72C507.361 57.4667 506.821 57.34 506.194 57.34C505.594 57.34 505.054 57.46 504.574 57.7C504.107 57.94 503.741 58.2733 503.474 58.7C503.221 59.1133 503.094 59.5933 503.094 60.14C503.094 60.7 503.227 61.2133 503.494 61.68C503.761 62.1467 504.127 62.5133 504.594 62.78C505.074 63.0467 505.621 63.18 506.234 63.18ZM514.274 65V54.32H516.774V61.36L522.674 54.32H524.954V65H522.454V57.96L516.574 65H514.274ZM526.757 64.98L526.877 62.88C526.97 62.8933 527.057 62.9067 527.137 62.92C527.217 62.9333 527.29 62.94 527.357 62.94C527.77 62.94 528.09 62.8133 528.317 62.56C528.543 62.3067 528.71 61.9667 528.817 61.54C528.937 61.1 529.017 60.6133 529.057 60.08C529.11 59.5333 529.15 58.9867 529.177 58.44L529.357 54.32H537.997V65H535.497V55.76L536.077 56.44H530.997L531.537 55.74L531.397 58.56C531.357 59.5067 531.277 60.3867 531.157 61.2C531.05 62 530.877 62.7 530.637 63.3C530.41 63.9 530.09 64.3667 529.677 64.7C529.277 65.0333 528.763 65.2 528.137 65.2C527.937 65.2 527.717 65.18 527.477 65.14C527.25 65.1 527.01 65.0467 526.757 64.98ZM546.344 65.14C545.157 65.14 544.117 64.9067 543.224 64.44C542.344 63.96 541.657 63.3067 541.164 62.48C540.684 61.6533 540.444 60.7133 540.444 59.66C540.444 58.5933 540.677 57.6533 541.144 56.84C541.624 56.0133 542.277 55.3667 543.104 54.9C543.944 54.4333 544.897 54.2 545.964 54.2C547.004 54.2 547.93 54.4267 548.744 54.88C549.557 55.3333 550.197 55.9733 550.664 56.8C551.13 57.6267 551.364 58.6 551.364 59.72C551.364 59.8267 551.357 59.9467 551.344 60.08C551.344 60.2133 551.337 60.34 551.324 60.46H542.424V58.8H550.004L549.024 59.32C549.037 58.7067 548.91 58.1667 548.644 57.7C548.377 57.2333 548.01 56.8667 547.544 56.6C547.09 56.3333 546.564 56.2 545.964 56.2C545.35 56.2 544.81 56.3333 544.344 56.6C543.89 56.8667 543.53 57.24 543.264 57.72C543.01 58.1867 542.884 58.74 542.884 59.38V59.78C542.884 60.42 543.03 60.9867 543.324 61.48C543.617 61.9733 544.03 62.3533 544.564 62.62C545.097 62.8867 545.71 63.02 546.404 63.02C547.004 63.02 547.544 62.9267 548.024 62.74C548.504 62.5533 548.93 62.26 549.304 61.86L550.644 63.4C550.164 63.96 549.557 64.3933 548.824 64.7C548.104 64.9933 547.277 65.14 546.344 65.14ZM555.908 65V55.84L556.488 56.44H552.148V54.32H562.148V56.44H557.828L558.408 55.84V65H555.908ZM570.441 65V62.84L570.301 62.38V58.6C570.301 57.8667 570.081 57.3 569.641 56.9C569.201 56.4867 568.535 56.28 567.641 56.28C567.041 56.28 566.448 56.3733 565.861 56.56C565.288 56.7467 564.801 57.0067 564.401 57.34L563.421 55.52C563.995 55.08 564.675 54.7533 565.461 54.54C566.261 54.3133 567.088 54.2 567.941 54.2C569.488 54.2 570.681 54.5733 571.521 55.32C572.375 56.0533 572.801 57.1933 572.801 58.74V65H570.441ZM567.081 65.14C566.281 65.14 565.581 65.0067 564.981 64.74C564.381 64.46 563.915 64.08 563.581 63.6C563.261 63.1067 563.101 62.5533 563.101 61.94C563.101 61.34 563.241 60.8 563.521 60.32C563.815 59.84 564.288 59.46 564.941 59.18C565.595 58.9 566.461 58.76 567.541 58.76H570.641V60.42H567.721C566.868 60.42 566.295 60.56 566.001 60.84C565.708 61.1067 565.561 61.44 565.561 61.84C565.561 62.2933 565.741 62.6533 566.101 62.92C566.461 63.1867 566.961 63.32 567.601 63.32C568.215 63.32 568.761 63.18 569.241 62.9C569.735 62.62 570.088 62.2067 570.301 61.66L570.721 63.16C570.481 63.7867 570.048 64.2733 569.421 64.62C568.808 64.9667 568.028 65.14 567.081 65.14ZM575.895 65V54.32H578.515L582.815 61.9H581.775L586.295 54.32H588.635L588.655 65H586.395V57L586.795 57.26L582.795 63.88H581.715L577.695 57.08L578.175 56.96V65H575.895ZM592.008 65V54.32H594.508V61.36L600.408 54.32H602.688V65H600.188V57.96L594.308 65H592.008Z" fill="url(#paint5_linear_1605_154)"/>
<defs>
<linearGradient id="paint0_linear_1605_154" x1="100" y1="54" x2="100" y2="64" gradientUnits="userSpaceOnUse">
<stop stop-color="#6EC8CB"/>
<stop offset="1" stop-color="#174B99"/>
</linearGradient>
<linearGradient id="paint1_linear_1605_154" x1="100" y1="31" x2="100" y2="58" gradientUnits="userSpaceOnUse">
<stop stop-color="#6EC8CB"/>
<stop offset="1" stop-color="#174B99"/>
</linearGradient>
<linearGradient id="paint2_linear_1605_154" x1="52" y1="33" x2="52" y2="72" gradientUnits="userSpaceOnUse">
<stop stop-color="#6EC8CB"/>
<stop offset="1" stop-color="#174B99"/>
</linearGradient>
<linearGradient id="paint3_linear_1605_154" x1="53.5" y1="2" x2="53.5" y2="54" gradientUnits="userSpaceOnUse">
<stop stop-color="#6EC8CB"/>
<stop offset="1" stop-color="#174B99"/>
</linearGradient>
<linearGradient id="paint4_linear_1605_154" x1="245.126" y1="-23.2633" x2="245.126" y2="53.5528" gradientUnits="userSpaceOnUse">
<stop stop-color="white"/>
<stop offset="0.504" stop-color="#6EC8CB"/>
<stop offset="0.939" stop-color="#65A3FF"/>
</linearGradient>
<linearGradient id="paint5_linear_1605_154" x1="349" y1="73" x2="349" y2="46" gradientUnits="userSpaceOnUse">
<stop stop-color="#66A8F8"/>
<stop offset="1" stop-color="#8AD3D5"/>
</linearGradient>
</defs>
</svg>
