<svg width="138" height="112" viewBox="0 0 138 112" fill="none" xmlns="http://www.w3.org/2000/svg">
<path d="M105.25 65L108.5 74H102L105.25 65Z" fill="url(#paint0_linear_1473_73)"/>
<path d="M106.5 46H104V69H106.5V46Z" fill="url(#paint1_linear_1473_73)"/>
<path d="M33.9667 50.4333C33.9667 48.5555 35.4889 47.0333 37.3667 47.0333H91.7667C93.6445 47.0333 95.1667 48.5555 95.1667 50.4333V78.7667C95.1667 80.6445 93.6445 82.1667 91.7667 82.1667H37.3667C35.4889 82.1667 33.9667 80.6445 33.9667 78.7667V50.4333Z" fill="url(#paint2_linear_1473_73)" stroke="url(#paint3_linear_1473_73)" stroke-width="4"/>
<path d="M20.8713 42.8411L61.8983 20.9645C63.3241 20.2042 65.6328 20.213 67.0548 20.9842L108.269 43.3311C109.733 44.125 109.68 45.4109 108.153 46.1601L66.9686 66.3581C65.5671 67.0455 63.4121 67.0348 62.0194 66.3336L20.9627 45.6653C19.4491 44.9034 19.4077 43.6216 20.8713 42.8411Z" fill="url(#paint4_linear_1473_73)" stroke="url(#paint5_linear_1473_73)" stroke-width="4"/>
<path d="M11.0043 111.728L5.73192 103.592L8.9002 101.685L15.4544 111.728H11.0043ZM0 111.728V94.8284H3.89383V111.728H0ZM2.75712 104.92V101.661H8.65834V104.92H2.75712ZM9.26298 103.713L5.65936 103.278L11.1494 94.8284H15.2851L9.26298 103.713ZM17.2899 111.728V94.8284H21.1837V105.837L29.2616 94.8284H32.9378V111.728H29.0681V100.743L20.9902 111.728H17.2899ZM37.1531 111.728V94.8284H52.5833V111.728H48.6895V97.122L49.5843 98.0152H40.1521L41.0469 97.122V111.728H37.1531ZM55.2562 110.231L56.4655 107.431C57.191 107.865 57.9649 108.203 58.7872 108.445C59.6257 108.67 60.4399 108.799 61.23 108.831C62.0361 108.847 62.7617 108.767 63.4066 108.59C64.0677 108.412 64.5917 108.147 64.9787 107.793C65.3818 107.439 65.5833 106.988 65.5833 106.441C65.5833 105.797 65.3173 105.322 64.7852 105.016C64.2531 104.695 63.5437 104.534 62.6569 104.534H58.5212V101.588H62.3667C63.1567 101.588 63.7694 101.427 64.2048 101.105C64.6562 100.784 64.8819 100.341 64.8819 99.7776C64.8819 99.2947 64.7207 98.9085 64.3982 98.6188C64.0758 98.313 63.6324 98.0876 63.0681 97.9428C62.5199 97.7979 61.8991 97.7336 61.2058 97.7497C60.5125 97.7658 59.795 97.8784 59.0533 98.0876C58.3116 98.2969 57.6022 98.5866 56.925 98.9568L55.7399 95.939C56.8363 95.3757 57.9891 94.9894 59.1984 94.7802C60.4238 94.5548 61.6008 94.4985 62.7295 94.6112C63.8742 94.7077 64.9061 94.9653 65.8252 95.3837C66.7442 95.7861 67.4778 96.3172 68.026 96.9771C68.5742 97.637 68.8483 98.4176 68.8483 99.3189C68.8483 100.124 68.6387 100.84 68.2195 101.468C67.8003 102.095 67.2118 102.578 66.454 102.916C65.7123 103.254 64.8578 103.423 63.8904 103.423L63.9871 102.554C65.1157 102.554 66.0912 102.747 66.9135 103.133C67.7519 103.504 68.3969 104.027 68.8483 104.703C69.3159 105.363 69.5497 106.127 69.5497 106.996C69.5497 107.801 69.332 108.525 68.8967 109.169C68.4775 109.797 67.8971 110.328 67.1554 110.762C66.4137 111.197 65.5672 111.519 64.6159 111.728C63.6646 111.937 62.6488 112.026 61.5686 111.994C60.5044 111.961 59.4322 111.808 58.3519 111.535C57.2716 111.245 56.2397 110.811 55.2562 110.231ZM70.7408 111.728L78.2867 94.8284H82.1563L89.7263 111.728H85.6148L79.4234 96.8081H80.9712L74.7556 111.728H70.7408ZM74.5138 108.107L75.5537 105.137H84.2604L85.3246 108.107H74.5138ZM101.266 105.427C100.427 105.765 99.6209 106.022 98.847 106.199C98.0731 106.36 97.3314 106.441 96.622 106.441C94.3485 106.441 92.6072 105.902 91.3979 104.823C90.1887 103.729 89.584 102.16 89.584 100.116V94.8284H93.4537V99.681C93.4537 100.84 93.7681 101.717 94.3969 102.313C95.0257 102.892 95.9206 103.182 97.0815 103.182C97.8232 103.182 98.5407 103.101 99.234 102.94C99.9273 102.763 100.572 102.514 101.169 102.192L101.266 105.427ZM100.709 111.728V94.8284H104.579V111.728H100.709ZM112.391 101.637H120.542V104.678H112.391V101.637ZM112.682 108.59H121.896V111.728H108.788V94.8284H121.582V97.9669H112.682V108.59ZM117.64 93.3316C117.172 93.3316 116.777 93.1787 116.455 92.8729C116.132 92.5671 115.971 92.1648 115.971 91.6658C115.971 91.1669 116.132 90.7645 116.455 90.4587C116.777 90.1529 117.172 90 117.64 90C118.107 90 118.502 90.1529 118.825 90.4587C119.163 90.7645 119.333 91.1669 119.333 91.6658C119.333 92.1648 119.163 92.5671 118.825 92.8729C118.502 93.1787 118.107 93.3316 117.64 93.3316ZM112.754 93.3316C112.287 93.3316 111.883 93.1787 111.545 92.8729C111.222 92.5671 111.061 92.1648 111.061 91.6658C111.061 91.1669 111.222 90.7645 111.545 90.4587C111.883 90.1529 112.287 90 112.754 90C113.222 90 113.617 90.1529 113.939 90.4587C114.262 90.7645 114.423 91.1669 114.423 91.6658C114.423 92.1648 114.262 92.5671 113.939 92.8729C113.617 93.1787 113.222 93.3316 112.754 93.3316ZM128.713 111.728V97.122L129.608 98.0152H123.32V94.8284H138V98.0152H131.712L132.582 97.122V111.728H128.713Z" fill="url(#paint6_linear_1473_73)"/>
<defs>
<linearGradient id="paint0_linear_1473_73" x1="105.25" y1="65" x2="105.25" y2="74" gradientUnits="userSpaceOnUse">
<stop stop-color="#90FBFF"/>
<stop offset="1" stop-color="#2179FC"/>
</linearGradient>
<linearGradient id="paint1_linear_1473_73" x1="105.25" y1="46" x2="105.25" y2="69" gradientUnits="userSpaceOnUse">
<stop stop-color="#8DF6F9"/>
<stop offset="1" stop-color="#2C7EF9"/>
</linearGradient>
<linearGradient id="paint2_linear_1473_73" x1="64.5667" y1="47.0333" x2="64.5667" y2="82.1667" gradientUnits="userSpaceOnUse">
<stop stop-color="#B7FDFF"/>
<stop offset="1" stop-color="#3385FF"/>
</linearGradient>
<linearGradient id="paint3_linear_1473_73" x1="64.5667" y1="47.0333" x2="65" y2="93.5" gradientUnits="userSpaceOnUse">
<stop stop-color="#B0FEFF"/>
<stop offset="1" stop-color="#0B44FF"/>
</linearGradient>
<linearGradient id="paint4_linear_1473_73" x1="64.5667" y1="20.4" x2="64.5667" y2="66.8667" gradientUnits="userSpaceOnUse">
<stop stop-color="#85F4F8"/>
<stop offset="1" stop-color="#2B71D8"/>
</linearGradient>
<linearGradient id="paint5_linear_1473_73" x1="65" y1="-7.5" x2="65" y2="85" gradientUnits="userSpaceOnUse">
<stop stop-color="#3564FF"/>
<stop offset="1" stop-color="#4AFCFF"/>
</linearGradient>
<linearGradient id="paint6_linear_1473_73" x1="68.5251" y1="73.9052" x2="68.5251" y2="116.154" gradientUnits="userSpaceOnUse">
<stop stop-color="white"/>
<stop offset="0.504" stop-color="#84ECEF"/>
<stop offset="0.939" stop-color="#558DE3"/>
</linearGradient>
</defs>
</svg>
