<svg width="102" height="102" viewBox="0 0 102 102" fill="none" xmlns="http://www.w3.org/2000/svg">
<path d="M92.25 65L95.5 74H89L92.25 65Z" fill="url(#paint0_linear_1473_65)"/>
<path d="M93.5 46H91V69H93.5V46Z" fill="url(#paint1_linear_1473_65)"/>
<path d="M20.9667 50.4333C20.9667 48.5555 22.4889 47.0333 24.3667 47.0333H78.7667C80.6445 47.0333 82.1667 48.5555 82.1667 50.4333V78.7667C82.1667 80.6445 80.6445 82.1667 78.7667 82.1667H24.3667C22.4889 82.1667 20.9667 80.6445 20.9667 78.7667V50.4333Z" fill="url(#paint2_linear_1473_65)" stroke="url(#paint3_linear_1473_65)" stroke-width="4"/>
<path d="M7.87132 42.8411L48.8983 20.9645C50.3241 20.2042 52.6328 20.213 54.0548 20.9842L95.2686 43.3311C96.7327 44.125 96.6801 45.4109 95.1527 46.1601L53.9686 66.3581C52.5671 67.0455 50.4121 67.0348 49.0194 66.3336L7.96265 45.6653C6.44914 44.9034 6.40769 43.6216 7.87132 42.8411Z" fill="url(#paint4_linear_1473_65)" stroke="url(#paint5_linear_1473_65)" stroke-width="4"/>
<defs>
<linearGradient id="paint0_linear_1473_65" x1="92.25" y1="65" x2="92.25" y2="74" gradientUnits="userSpaceOnUse">
<stop stop-color="#90FBFF"/>
<stop offset="1" stop-color="#2179FC"/>
</linearGradient>
<linearGradient id="paint1_linear_1473_65" x1="92.25" y1="46" x2="92.25" y2="69" gradientUnits="userSpaceOnUse">
<stop stop-color="#8DF6F9"/>
<stop offset="1" stop-color="#2C7EF9"/>
</linearGradient>
<linearGradient id="paint2_linear_1473_65" x1="51.5667" y1="47.0333" x2="51.5667" y2="82.1667" gradientUnits="userSpaceOnUse">
<stop stop-color="#B7FDFF"/>
<stop offset="1" stop-color="#3385FF"/>
</linearGradient>
<linearGradient id="paint3_linear_1473_65" x1="51.5667" y1="47.0333" x2="52" y2="93.5" gradientUnits="userSpaceOnUse">
<stop stop-color="#B0FEFF"/>
<stop offset="1" stop-color="#0B44FF"/>
</linearGradient>
<linearGradient id="paint4_linear_1473_65" x1="51.5667" y1="20.4" x2="51.5667" y2="66.8667" gradientUnits="userSpaceOnUse">
<stop stop-color="#85F4F8"/>
<stop offset="1" stop-color="#2B71D8"/>
</linearGradient>
<linearGradient id="paint5_linear_1473_65" x1="52" y1="-7.5" x2="52" y2="85" gradientUnits="userSpaceOnUse">
<stop stop-color="#3564FF"/>
<stop offset="1" stop-color="#4AFCFF"/>
</linearGradient>
</defs>
</svg>
