<svg width="138" height="22" viewBox="0 0 138 22" fill="none" xmlns="http://www.w3.org/2000/svg">
<path d="M11.0043 21.728L5.73192 13.5921L8.9002 11.6848L15.4544 21.728H11.0043ZM0 21.728V4.82844H3.89383V21.728H0ZM2.75712 14.9199V11.6607H8.65834V14.9199H2.75712ZM9.26298 13.7128L5.65936 13.2782L11.1494 4.82844H15.2851L9.26298 13.7128ZM17.2899 21.728V4.82844H21.1837V15.8373L29.2616 4.82844H32.9378V21.728H29.0681V10.7433L20.9902 21.728H17.2899ZM37.1531 21.728V4.82844H52.5833V21.728H48.6895V7.12195L49.5843 8.01521H40.1521L41.0469 7.12195V21.728H37.1531ZM55.2562 20.2312L56.4655 17.4307C57.191 17.8652 57.965 18.2032 58.7873 18.4446C59.6257 18.67 60.4399 18.7987 61.23 18.8309C62.0361 18.847 62.7617 18.7666 63.4066 18.5895C64.0677 18.4125 64.5917 18.1469 64.9787 17.7928C65.3818 17.4387 65.5833 16.9881 65.5833 16.4409C65.5833 15.7971 65.3173 15.3223 64.7852 15.0165C64.2531 14.6946 63.5437 14.5336 62.6569 14.5336H58.5212V11.5883H62.3667C63.1567 11.5883 63.7694 11.4273 64.2048 11.1054C64.6562 10.7835 64.8819 10.3409 64.8819 9.77759C64.8819 9.29475 64.7207 8.90848 64.3982 8.61878C64.0758 8.31297 63.6324 8.08765 63.0681 7.9428C62.5199 7.79794 61.8991 7.73356 61.2058 7.74966C60.5125 7.76575 59.795 7.87841 59.0533 8.08765C58.3116 8.29688 57.6022 8.58658 56.925 8.95677L55.7399 5.93899C56.8363 5.37567 57.9891 4.98939 59.1984 4.78016C60.4238 4.55483 61.6008 4.4985 62.7295 4.61116C63.8742 4.70773 64.9061 4.96525 65.8252 5.38372C66.7442 5.78609 67.4778 6.31721 68.026 6.9771C68.5742 7.63699 68.8483 8.41759 68.8483 9.3189C68.8483 10.1236 68.6387 10.8399 68.2195 11.4676C67.8003 12.0953 67.2118 12.5781 66.454 12.9161C65.7123 13.2541 64.8578 13.4231 63.8904 13.4231L63.9871 12.554C65.1157 12.554 66.0912 12.7471 66.9135 13.1334C67.7519 13.5035 68.3969 14.0266 68.8483 14.7026C69.3159 15.3625 69.5497 16.127 69.5497 16.9961C69.5497 17.8009 69.332 18.5251 68.8967 19.1689C68.4775 19.7966 67.8971 20.3277 67.1554 20.7623C66.4137 21.1969 65.5672 21.5188 64.6159 21.728C63.6646 21.9372 62.6488 22.0258 61.5686 21.9936C60.5044 21.9614 59.4322 21.8085 58.3519 21.5349C57.2716 21.2451 56.2397 20.8106 55.2562 20.2312ZM70.7408 21.728L78.2867 4.82844H82.1563L89.7263 21.728H85.6148L79.4234 6.80811H80.9712L74.7556 21.728H70.7408ZM74.5138 18.1067L75.5537 15.1372H84.2604L85.3246 18.1067H74.5138ZM101.266 15.4269C100.427 15.7649 99.6209 16.0224 98.847 16.1994C98.0731 16.3604 97.3314 16.4409 96.622 16.4409C94.3485 16.4409 92.6072 15.9017 91.3979 14.8233C90.1887 13.7289 89.584 12.1596 89.584 10.1156V4.82844H93.4537V9.68103C93.4537 10.8399 93.7681 11.717 94.3969 12.3125C95.0257 12.8919 95.9206 13.1816 97.0815 13.1816C97.8232 13.1816 98.5407 13.1012 99.234 12.9402C99.9273 12.7632 100.572 12.5137 101.169 12.1918L101.266 15.4269ZM100.709 21.728V4.82844H104.579V21.728H100.709ZM112.391 11.6366H120.542V14.6785H112.391V11.6366ZM112.682 18.5895H121.896V21.728H108.788V4.82844H121.582V7.96694H112.682V18.5895ZM117.64 3.33164C117.172 3.33164 116.777 3.17873 116.455 2.87293C116.132 2.56712 115.971 2.16476 115.971 1.66582C115.971 1.16688 116.132 0.764512 116.455 0.458711C116.777 0.15291 117.172 0 117.64 0C118.107 0 118.502 0.15291 118.825 0.458711C119.163 0.764512 119.333 1.16688 119.333 1.66582C119.333 2.16476 119.163 2.56712 118.825 2.87293C118.502 3.17873 118.107 3.33164 117.64 3.33164ZM112.754 3.33164C112.287 3.33164 111.883 3.17873 111.545 2.87293C111.222 2.56712 111.061 2.16476 111.061 1.66582C111.061 1.16688 111.222 0.764512 111.545 0.458711C111.883 0.15291 112.287 0 112.754 0C113.222 0 113.617 0.15291 113.939 0.458711C114.262 0.764512 114.423 1.16688 114.423 1.66582C114.423 2.16476 114.262 2.56712 113.939 2.87293C113.617 3.17873 113.222 3.33164 112.754 3.33164ZM128.713 21.728V7.12195L129.608 8.01521H123.32V4.82844H138V8.01521H131.712L132.582 7.12195V21.728H128.713Z" fill="url(#paint0_linear_1473_70)"/>
<defs>
<linearGradient id="paint0_linear_1473_70" x1="68.5251" y1="-16.0948" x2="68.5251" y2="26.1541" gradientUnits="userSpaceOnUse">
<stop stop-color="white"/>
<stop offset="0.504" stop-color="#84ECEF"/>
<stop offset="0.939" stop-color="#558DE3"/>
</linearGradient>
</defs>
</svg>
