<svg width="70" height="70" viewBox="0 0 70 70" fill="none" xmlns="http://www.w3.org/2000/svg">
<path d="M65.0017 16.1089V70H6.53479V0.000244141H48.8933L56.3961 7.50323L65.0017 16.1089Z" fill="#FFFEFE"/>
<path d="M33.0406 4.68872H5V17.2351H33.0406V4.68872Z" fill="#B43331"/>
<path d="M15.0581 8.80185C14.9344 8.50298 14.7695 8.23501 14.5428 8.00833C14.316 7.78165 14.0378 7.59612 13.7183 7.47239C13.3885 7.33841 13.0173 7.27661 12.6053 7.27661H9.52362V15.233H11.0799V12.2338H12.6053C13.0175 12.2338 13.3885 12.172 13.7183 12.038C14.0378 11.9142 14.3159 11.7289 14.5428 11.502C14.7695 11.2754 14.9345 11.0176 15.0581 10.7085C15.1713 10.4097 15.2333 10.0901 15.2333 9.76038C15.2331 9.42022 15.1713 9.10071 15.0581 8.80185ZM13.3781 10.5435C13.172 10.7393 12.8835 10.8424 12.5329 10.8424H11.0799V8.65747H12.5329C12.8835 8.65747 13.172 8.76056 13.3781 8.96659C13.5739 9.16237 13.6769 9.43034 13.6769 9.76011C13.677 10.0798 13.5739 10.3477 13.3781 10.5435Z" fill="#FFFEFE"/>
<path d="M22.499 10.3579C22.4888 10.0796 22.4785 9.83232 22.4475 9.60551C22.4167 9.37869 22.365 9.17266 22.2929 8.97688C22.2208 8.79135 22.128 8.60582 22.0042 8.44094C21.726 8.03898 21.386 7.74012 21.0046 7.55459C20.613 7.36906 20.1492 7.27637 19.6029 7.27637H16.738V15.2327H19.6031C20.1494 15.2327 20.6131 15.14 21.0047 14.9545C21.3861 14.769 21.7262 14.4701 22.0044 14.0681C22.1281 13.9033 22.2209 13.7177 22.293 13.5322C22.3652 13.3364 22.4167 13.1303 22.4476 12.9036C22.4787 12.6769 22.4888 12.4294 22.4992 12.1512C22.5094 11.8832 22.5094 11.5844 22.5094 11.2546C22.5093 10.9248 22.5093 10.6258 22.499 10.3579ZM20.9428 12.0585C20.9428 12.2956 20.9223 12.4811 20.9015 12.646C20.8808 12.8006 20.8501 12.9449 20.8088 13.0479C20.7676 13.1613 20.7057 13.2644 20.6336 13.3571C20.3759 13.6868 19.9844 13.8415 19.4691 13.8415H18.284V8.65736H19.4691C19.9844 8.65736 20.3761 8.82225 20.6336 9.15201C20.7058 9.24471 20.7676 9.33754 20.8088 9.45088C20.8501 9.56422 20.881 9.6982 20.9015 9.86309C20.9223 10.0177 20.9428 10.2135 20.9428 10.4402C20.953 10.667 20.953 10.9452 20.953 11.2543C20.9532 11.5637 20.9532 11.8317 20.9428 12.0585Z" fill="#FFFEFE"/>
<path d="M29.1466 8.65736V7.27637H23.9007V15.2327H25.457V12.007H28.6004V10.6156H25.457V8.65736H29.1466Z" fill="#FFFEFE"/>
<path d="M15.0581 8.80185C14.9344 8.50298 14.7695 8.23501 14.5428 8.00833C14.316 7.78165 14.0378 7.59612 13.7183 7.47239C13.3885 7.33841 13.0173 7.27661 12.6053 7.27661H9.52362V15.233H11.0799V12.2338H12.6053C13.0175 12.2338 13.3885 12.172 13.7183 12.038C14.0378 11.9142 14.3159 11.7289 14.5428 11.502C14.7695 11.2754 14.9345 11.0176 15.0581 10.7085C15.1713 10.4097 15.2333 10.0901 15.2333 9.76038C15.2331 9.42022 15.1713 9.10071 15.0581 8.80185ZM13.3781 10.5435C13.172 10.7393 12.8835 10.8424 12.5329 10.8424H11.0799V8.65747H12.5329C12.8835 8.65747 13.172 8.76056 13.3781 8.96659C13.5739 9.16237 13.6769 9.43034 13.6769 9.76011C13.677 10.0798 13.5739 10.3477 13.3781 10.5435Z" fill="#FFFEFE"/>
<path opacity="0.08" d="M65.0017 16.1088V69.9999H6.53479V57.3645L33.8669 30.0325L35.485 28.4144L36.3816 27.5177L37.8759 26.0234L39.6486 24.2507L56.3961 7.50317L65.0017 16.1088Z" fill="#040000"/>
<path d="M65.0017 16.1104H48.8915V0L65.0017 16.1104Z" fill="#BBBBBA"/>
<path d="M56.6539 50.6758C56.3137 50.0781 55.85 49.5113 55.2729 48.996C54.7989 48.5631 54.2423 48.1612 53.6135 47.7901C51.0783 46.2958 47.4608 45.5743 42.5446 45.5743H42.05C41.782 45.327 41.5036 45.0797 41.2152 44.822C39.3498 43.1421 37.8657 41.3178 36.7114 39.2876C38.9786 34.289 40.0609 29.8368 39.9269 26.044C39.9062 25.405 39.8134 24.8073 39.6485 24.2507C39.4013 23.3541 38.989 22.5604 38.4118 21.9112C38.4015 21.9009 38.4015 21.9009 38.3912 21.8905C37.474 20.8599 36.1961 20.2725 34.8974 20.2725C33.5885 20.2725 32.3827 20.8393 31.5065 21.8803C30.6409 22.9109 30.177 24.3229 30.1564 25.9821C30.1256 28.5174 30.3317 30.9187 30.7645 33.1346C30.8057 33.3098 30.8367 33.485 30.8779 33.6601C31.3107 35.6699 31.9497 37.5764 32.7743 39.3491C31.8055 41.3176 30.8263 43.0181 30.1463 44.1724C29.631 45.0485 29.064 45.9657 28.4765 46.883C25.8279 47.3571 23.581 47.9342 21.623 48.6557C18.9742 49.6142 16.8511 50.8508 15.3258 52.3247C14.3363 53.2728 13.6665 54.2829 13.3366 55.3341C12.9862 56.4162 13.0069 57.4984 13.3985 58.4672C13.7592 59.3638 14.4085 60.1161 15.2742 60.6314C15.4803 60.7552 15.6968 60.8581 15.9234 60.9509C16.5831 61.2189 17.3046 61.3631 18.0568 61.3631C19.7986 61.3631 21.5918 60.6108 23.1069 59.2607C25.9307 56.7356 28.8475 52.6751 30.5685 50.1087C31.9804 49.8923 33.516 49.7068 35.2475 49.5213C37.2883 49.3151 39.0918 49.1915 40.7305 49.1295C41.2355 49.583 41.7199 50.0159 42.1838 50.4281C44.7604 52.7263 46.7185 54.3857 48.4912 55.5503C48.4912 55.5605 48.5015 55.5605 48.5117 55.5605C49.2127 56.0243 49.8825 56.4056 50.5524 56.7148C51.3046 57.0653 52.0674 57.2508 52.8506 57.2508C53.8401 57.2508 54.7676 56.9519 55.5406 56.4057C56.3238 55.8389 56.8907 55.0247 57.1484 54.1075C57.4475 53.005 57.2722 51.7786 56.6539 50.6758ZM33.8669 30.0325C33.7226 28.7545 33.6608 27.425 33.6814 26.0234C33.7019 24.6939 34.1865 23.7972 34.8975 23.7972C35.4333 23.7972 36.0003 24.2816 36.258 25.2091C36.3302 25.4873 36.3818 25.8068 36.392 26.1675C36.4125 26.6004 36.4023 27.0538 36.3818 27.5176C36.32 28.8265 36.093 30.2178 35.7014 31.7123C35.4644 32.6708 35.1552 33.6705 34.7739 34.7113C34.341 33.248 34.0317 31.6918 33.8669 30.0325ZM16.6762 57.1584C16.5009 56.7255 16.6967 55.8907 17.7686 54.8601C19.4072 53.2936 21.9734 52.0568 25.5498 51.1189C24.8695 52.0464 24.1997 52.8916 23.5503 53.6645C22.5609 54.86 21.6127 55.8701 20.7573 56.6327C20.0257 57.2922 19.2216 57.7045 18.459 57.8076C18.325 57.8283 18.191 57.8385 18.0571 57.8385C17.3873 57.8387 16.841 57.5707 16.6762 57.1584ZM33.1453 46.2029L33.2175 46.0896L33.1042 46.1103C33.1247 46.0587 33.1557 46.0072 33.1865 45.966C33.6195 45.2343 34.1655 44.2964 34.753 43.2143L34.8046 43.3276L34.9385 43.0494C35.3714 43.6678 35.8455 44.2759 36.3402 44.8632C36.5774 45.1415 36.8247 45.4094 37.0719 45.6774L36.9072 45.6877L37.0514 45.8216C36.6289 45.8525 36.1858 45.8938 35.7426 45.935C35.4642 45.9659 35.1756 45.9865 34.8871 46.0174C34.2894 46.0792 33.7019 46.1411 33.1453 46.2029ZM50.4909 52.6339C49.2645 51.8507 47.8936 50.7479 46.2034 49.2741C48.6047 49.5214 50.4909 50.0471 51.8306 50.8303C52.418 51.1705 52.8612 51.5209 53.16 51.8609C53.6548 52.3865 53.8301 52.8606 53.7371 53.1801C53.6548 53.4996 53.294 53.7161 52.8508 53.7161C52.593 53.7161 52.3252 53.6543 52.047 53.5203C51.5728 53.2936 51.0782 53.0152 50.5525 52.6752C50.5319 52.6752 50.5114 52.6546 50.4909 52.6339Z" fill="#B43331"/>
</svg>
