<svg width="70" height="70" viewBox="0 0 70 70" fill="none" xmlns="http://www.w3.org/2000/svg">
<path d="M40.5475 5.07715V11.34C47.985 11.3815 56.6409 11.2634 64.0719 11.375C65.4763 11.375 65.5375 12.6175 65.555 13.7025C65.6731 26.7006 65.5266 40.0728 65.625 53.0775C65.5987 53.5893 65.6119 55.4837 65.5966 56.0218C65.5484 57.8222 64.6472 57.9009 62.8469 57.9556C62.5581 57.9556 61.7094 57.9687 61.4294 57.9818C54.4709 57.9468 47.5125 57.9621 40.5475 57.9621V64.9228L4.375 59.3556C4.375 43.1185 4.375 26.8865 4.375 10.6596L40.5475 5.07715Z" fill="#D33922"/>
<path d="M40.5475 13.4268H63.5163V55.8643H40.5475V50.3124H57.2469V47.5233H40.5475V44.0452H57.2469V41.2627H40.5541C40.5541 39.8977 40.5541 38.5349 40.541 37.1721C41.9072 37.665 43.3662 37.8471 44.8117 37.7052C46.2572 37.5633 47.6529 37.1009 48.8972 36.3518C50.1655 35.5183 51.2162 34.3938 51.9616 33.0719C52.7071 31.7499 53.1257 30.2689 53.1825 28.7524C50.12 28.7305 47.0728 28.7393 44.0256 28.7393C44.0256 25.7118 44.0606 22.6864 43.9622 19.6655C42.8203 19.8843 41.6806 20.1249 40.5453 20.3677V13.4289" fill="white"/>
<path d="M45.4256 18.2087C47.7984 18.3574 50.0361 19.3644 51.721 21.0416C53.4059 22.7189 54.423 24.952 54.5825 27.3241C51.52 27.3591 48.4728 27.3459 45.4191 27.3459C45.4191 24.2987 45.4191 21.2494 45.4191 18.2087" fill="#D33922"/>
<path d="M15.5313 23.4632C19.3091 23.6447 23.8875 21.9669 27.02 24.7997C30.0191 28.4397 29.225 35.1335 24.78 37.31C23.1638 37.95 21.4117 38.1698 19.6875 37.9488C19.6875 40.67 19.6744 43.3913 19.6875 46.1104C18.3094 45.9922 16.9247 45.8741 15.5466 45.7625C15.4831 38.325 15.47 30.8875 15.5466 23.45" fill="white"/>
<path d="M19.6722 27.2255C21.0438 27.1621 22.7347 26.9127 23.6666 28.1989C24.0392 28.8993 24.2414 29.6777 24.257 30.4709C24.2726 31.2641 24.101 32.0498 23.7563 32.7643C22.9622 34.1971 21.1684 34.0593 19.7838 34.2255C19.6372 31.8936 19.6525 29.5639 19.6722 27.2255Z" fill="#D33922"/>
</svg>
