<svg width="36" height="36" viewBox="0 0 36 36" fill="none" xmlns="http://www.w3.org/2000/svg">
<path d="M16 1H19.75C20.7856 1 21.625 1.83947 21.625 2.875V3.94148C21.625 4.74361 22.1633 5.44047 22.9041 5.74802C23.6453 6.05571 24.5082 5.93845 25.0756 5.37106L25.8299 4.61671C26.5621 3.88446 27.7493 3.88446 28.4815 4.61671L31.1331 7.26835C31.8655 8.00059 31.8653 9.18777 31.1331 9.92001L30.379 10.6743C29.8114 11.2417 29.6942 12.1046 30.0019 12.8458C30.3094 13.5866 31.0064 14.125 31.8087 14.125H32.875C33.9106 14.125 34.75 14.9644 34.75 16V19.75C34.75 20.7856 33.9106 21.625 32.875 21.625H31.8085C31.0064 21.625 30.3096 22.1633 30.0019 22.9041C29.6942 23.6453 29.8114 24.5082 30.379 25.0756L31.1331 25.8299C31.8655 26.5621 31.8655 27.7493 31.1331 28.4815L28.4815 31.1331C27.7493 31.8655 26.5621 31.8655 25.8299 31.1331L25.0756 30.379C24.5082 29.8114 23.6453 29.6942 22.9041 30.0019C22.1633 30.3096 21.625 31.0064 21.625 31.8085V32.875C21.625 33.9106 20.7856 34.75 19.75 34.75H16C14.9644 34.75 14.125 33.9106 14.125 32.875V31.8087C14.125 31.0064 13.5866 30.3094 12.8458 30.0019C12.1046 29.6942 11.2417 29.8114 10.6743 30.379L9.91997 31.1331C9.18773 31.8655 8.00056 31.8655 7.26833 31.1331L4.61667 28.4815C3.88444 27.7493 3.88444 26.5621 4.61667 25.8299L5.37106 25.0756C5.93845 24.5082 6.05571 23.6453 5.74802 22.9041C5.44047 22.1633 4.74361 21.625 3.94148 21.625H2.875C1.83947 21.625 1 20.7856 1 19.75V16C1 14.9644 1.83947 14.125 2.875 14.125H3.94144C4.74359 14.125 5.44047 13.5867 5.74804 12.8458C6.05575 12.1047 5.93849 11.2418 5.37106 10.6744L4.61671 9.92001C3.88446 9.18777 3.88446 8.00059 4.61671 7.26837L7.26835 4.61671C8.00059 3.88448 9.18777 3.88448 9.92001 4.61671L10.6744 5.37106C11.2418 5.93849 12.1047 6.05575 12.8458 5.74804C13.5867 5.44047 14.125 4.74359 14.125 3.94142V2.875C14.125 1.83947 14.9644 1 16 1Z" stroke="black" stroke-width="2"/>
<path d="M21.625 17.875C21.625 19.9461 19.9461 21.625 17.875 21.625C15.8039 21.625 14.125 19.9461 14.125 17.875C14.125 15.8039 15.8039 14.125 17.875 14.125C19.9461 14.125 21.625 15.8039 21.625 17.875Z" stroke="black" stroke-width="2"/>
</svg>
