<svg width="28" height="28" viewBox="0 0 28 28" fill="none" xmlns="http://www.w3.org/2000/svg">
<path d="M0.5 2.5C0.5 1.39543 1.39543 0.5 2.5 0.5H10.5789C11.6835 0.5 12.5789 1.39543 12.5789 2.5V10.5789C12.5789 11.6835 11.6835 12.5789 10.5789 12.5789H2.5C1.39543 12.5789 0.5 11.6835 0.5 10.5789V2.5ZM0.5 17.4211C0.5 16.3165 1.39543 15.4211 2.5 15.4211H10.5789C11.6835 15.4211 12.5789 16.3165 12.5789 17.4211V25.5C12.5789 26.6046 11.6835 27.5 10.5789 27.5H2.5C1.39543 27.5 0.5 26.6046 0.5 25.5V17.4211ZM17.4211 27.5C16.3165 27.5 15.4211 26.6046 15.4211 25.5V17.4211C15.4211 16.3165 16.3165 15.4211 17.4211 15.4211H25.5C26.6046 15.4211 27.5 16.3165 27.5 17.4211V25.5C27.5 26.6046 26.6046 27.5 25.5 27.5H17.4211ZM17.4211 12.5789C16.3165 12.5789 15.4211 11.6835 15.4211 10.5789V2.5C15.4211 1.39543 16.3165 0.5 17.4211 0.5H25.5C26.6046 0.5 27.5 1.39543 27.5 2.5V10.5789C27.5 11.6835 26.6046 12.5789 25.5 12.5789H17.4211Z" fill="black"/>
</svg>
