<svg width="27" height="17" viewBox="0 0 27 17" fill="none" xmlns="http://www.w3.org/2000/svg">
<path d="M1.5 17C0.671574 17 0 16.3284 0 15.5V15.5C0 14.6716 0.671573 14 1.5 14H25.5C26.3284 14 27 14.6716 27 15.5V15.5C27 16.3284 26.3284 17 25.5 17H1.5ZM0 8.46053C0 7.6103 0.689246 6.92105 1.53947 6.92105H25.4605C26.3108 6.92105 27 7.6103 27 8.46053V8.46053C27 9.31075 26.3108 10 25.4605 10H1.53947C0.689245 10 0 9.31075 0 8.46053V8.46053ZM1.5 3C0.671574 3 0 2.32843 0 1.5V1.5C0 0.671573 0.671573 0 1.5 0H25.5C26.3284 0 27 0.671573 27 1.5V1.5C27 2.32843 26.3284 3 25.5 3H1.5Z" fill="black"/>
</svg>
