<svg width="18" height="22" viewBox="0 0 18 22" fill="none" xmlns="http://www.w3.org/2000/svg">
<path d="M17 2C17.2652 2 17.5196 1.89464 17.7071 1.70711C17.8946 1.51957 18 1.26522 18 1C18 0.734784 17.8946 0.48043 17.7071 0.292893C17.5196 0.105357 17.2652 0 17 0H1C0.734784 0 0.48043 0.105357 0.292893 0.292893C0.105357 0.48043 0 0.734784 0 1C0 1.26522 0.105357 1.51957 0.292893 1.70711C0.48043 1.89464 0.734784 2 1 2H2.049C2.195 3.836 2.792 7.75 5.243 10C2.658 12.511 2.132 17.734 2.027 20H1C0.734784 20 0.48043 20.1054 0.292893 20.2929C0.105357 20.4804 0 20.7348 0 21C0 21.2652 0.105357 21.5196 0.292893 21.7071C0.48043 21.8946 0.734784 22 1 22H17C17.2652 22 17.5196 21.8946 17.7071 21.7071C17.8946 21.5196 18 21.2652 18 21C18 20.7348 17.8946 20.4804 17.7071 20.2929C17.5196 20.1054 17.2652 20 17 20H15.973C15.868 17.736 15.342 12.513 12.757 10C15.208 7.748 15.805 3.834 15.951 2H17ZM10.58 9.126C10.4211 9.21423 10.2893 9.34408 10.1987 9.5016C10.1081 9.65911 10.0621 9.83835 10.0657 10.02C10.0693 10.2017 10.1223 10.379 10.2191 10.5328C10.3159 10.6866 10.4528 10.8111 10.615 10.893C13.052 12.121 13.815 17.204 13.97 20H4.03C4.181 17.2 4.948 12.121 7.385 10.893C7.54724 10.8111 7.6841 10.6866 7.78088 10.5328C7.87765 10.379 7.93069 10.2017 7.93429 10.02C7.93789 9.83835 7.89191 9.65911 7.8013 9.5016C7.71069 9.34408 7.57887 9.21423 7.42 9.126C4.881 7.717 4.227 3.844 4.058 2H13.942C13.773 3.844 13.119 7.717 10.58 9.126ZM9 12C9 12 12 14.4 12 15.6V19H6V15.6C6 14.4 9 12 9 12Z" fill="black"/>
</svg>
