<svg width="70" height="70" viewBox="0 0 70 70" fill="none" xmlns="http://www.w3.org/2000/svg">
<path d="M40.5475 5.08153V10.6487C47.985 10.6903 56.1225 10.5722 63.5622 10.6903C63.8246 10.6447 64.094 10.6608 64.3491 10.7376C64.6041 10.8143 64.8378 10.9495 65.0314 11.1323C65.2251 11.3151 65.3735 11.5406 65.4647 11.7909C65.556 12.0411 65.5877 12.3091 65.5572 12.5737C65.6753 26.2806 65.5287 40.7706 65.6272 54.4797C65.5834 55.3547 65.6469 56.9253 65.5112 57.7981C65.3384 58.9115 64.8419 59.1259 63.7241 59.2768C63.0984 59.3622 62.0528 59.3512 61.4381 59.3797C55.3306 59.349 49.2275 59.3556 43.12 59.3578H40.5497V64.9293L4.375 59.3534C4.375 43.1178 4.375 26.8865 4.375 10.6597L40.5475 5.08153Z" fill="#283C82"/>
<path d="M40.5475 12.7356H63.5162V57.2687H40.5475V51.7015H58.6381V48.919H40.5475V45.4409H58.6381V42.6562H40.5475V39.1781H58.6381V36.3934H40.5475V32.9153H58.6381V30.1306H40.5475V26.6525H58.6381V23.8678H40.5475V20.3897H58.6381V17.605H40.5475V12.7356Z" fill="white"/>
<path d="M18.7534 25.0315C20.0659 24.9549 21.3981 24.9002 22.7194 24.8302C23.6447 29.5268 24.5919 34.2168 25.5937 38.8937C26.3791 34.0637 27.2497 29.249 28.0919 24.4277C29.4831 24.3796 30.8744 24.303 32.2591 24.209C30.6862 30.9509 29.3081 37.7496 27.5909 44.4521C26.4294 45.058 24.6903 44.4237 23.3122 44.5221C22.3869 39.9152 21.3084 35.3346 20.4794 30.7102C19.6656 35.2187 18.6069 39.6659 17.675 44.1327C16.3392 44.0627 14.9982 43.9818 13.6522 43.8899C12.4972 37.7649 11.1409 31.6859 10.0625 25.5477C11.2525 25.493 12.4491 25.4427 13.6391 25.4012C14.3566 29.833 15.1703 34.2452 15.7959 38.6837C16.7759 34.1337 17.78 29.5815 18.7534 25.0315Z" fill="white"/>
</svg>
